<svg width="48" height="48" viewBox="0 0 48 48" fill="none" xmlns="http://www.w3.org/2000/svg">
<g clip-path="url(#clip0_1_264)">
<g clip-path="url(#clip1_1_264)">
<rect opacity="0.1" width="48" height="48" rx="24" fill="#6D5DD3"/>
</g>
<path d="M30.625 21.3086C30.625 21.1172 30.543 20.9531 30.4062 20.8164C30.2695 20.707 30.1055 20.625 29.9414 20.625H19.0586C18.8398 20.625 18.6758 20.707 18.5664 20.8164C18.4297 20.9531 18.375 21.1172 18.375 21.3086V32.1914C18.375 32.3828 18.4297 32.5469 18.5664 32.6836C18.6758 32.8203 18.8398 32.875 19.0586 32.875H24.9102V28.1172H23.3242V26.2852H24.9102V24.918C24.9102 24.1523 25.1289 23.5508 25.5664 23.1133C26.0039 22.7031 26.5781 22.4844 27.2891 22.4844C27.8359 22.4844 28.3281 22.5117 28.7109 22.5391V24.207H27.7266C27.3711 24.207 27.125 24.2891 26.9883 24.4531C26.8789 24.5898 26.8242 24.8086 26.8242 25.1094V26.2852H28.6562L28.4102 28.1172H26.8242V32.875H29.9414C30.1328 32.875 30.2969 32.8203 30.4336 32.6836C30.543 32.5469 30.625 32.3828 30.625 32.1914V21.3086Z" fill="white"/>
</g>
<defs>
<clipPath id="clip0_1_264">
<rect width="48" height="48" fill="white"/>
</clipPath>
<clipPath id="clip1_1_264">
<rect width="48" height="48" fill="white"/>
</clipPath>
</defs>
</svg>
