<svg width="48" height="48" viewBox="0 0 48 48" fill="none" xmlns="http://www.w3.org/2000/svg">
<g clip-path="url(#clip0_1_274)">
<g clip-path="url(#clip1_1_274)">
<rect opacity="0.1" width="48" height="48" rx="24" fill="#6D5DD3"/>
</g>
<path d="M22.2578 30.6055C22.2578 30.6055 22.2305 30.5781 22.2031 30.5508C22.1758 30.5508 22.1484 30.5234 22.0938 30.5234C21.9844 30.5234 21.957 30.5781 21.957 30.6328C21.957 30.7148 21.9844 30.7422 22.0938 30.7422C22.2031 30.7422 22.2578 30.6875 22.2578 30.6055ZM21.4102 30.4961C21.4102 30.4414 21.4648 30.4141 21.5742 30.4414C21.6562 30.4688 21.6836 30.4961 21.6836 30.5508C21.6836 30.6055 21.6562 30.6328 21.6289 30.6328C21.5742 30.6602 21.5469 30.6602 21.5195 30.6328C21.4648 30.6328 21.4375 30.6055 21.4102 30.5781C21.3828 30.5508 21.3828 30.5234 21.4102 30.4961ZM22.6133 30.4414C22.6953 30.4414 22.75 30.4688 22.75 30.5234C22.75 30.5781 22.7227 30.6328 22.6406 30.6602C22.5859 30.6602 22.5586 30.6602 22.5312 30.6602C22.5039 30.6602 22.4766 30.6055 22.4766 30.5508C22.4766 30.4961 22.5039 30.4688 22.6133 30.4414ZM24.418 19.9688C25.6484 19.9688 26.7969 20.2695 27.8633 20.8438C28.9023 21.4453 29.75 22.2383 30.3516 23.2227C30.9531 24.2617 31.2812 25.4102 31.2812 26.6406C31.2812 28.1719 30.8438 29.5117 29.9961 30.7148C29.1484 31.918 28.0547 32.7383 26.6875 33.1758C26.5234 33.2305 26.4141 33.2031 26.332 33.1211C26.25 33.0664 26.2227 32.957 26.2227 32.8477V30.5508C26.2227 29.9766 26.0586 29.5664 25.7578 29.293C26.4141 29.2383 26.9336 29.1289 27.2617 29.0195C27.7539 28.8555 28.1641 28.582 28.4375 28.1992C28.7383 27.7344 28.9023 27.0781 28.9023 26.2578C28.9023 25.9297 28.8203 25.6289 28.7109 25.3555C28.6016 25.1914 28.4375 24.9453 28.1914 24.6719C28.2461 24.5078 28.3008 24.2891 28.3281 24.0156C28.3281 23.6328 28.2734 23.2227 28.1367 22.8125C27.9453 22.7578 27.6992 22.8125 27.3711 22.9219C27.1523 23.0312 26.8789 23.1406 26.6055 23.3047L26.25 23.5508C25.6758 23.3867 25.1016 23.3047 24.5 23.3047C23.8984 23.3047 23.3516 23.3867 22.8047 23.5508L22.4492 23.3047C22.1484 23.1406 21.875 23.0312 21.6562 22.9219C21.3281 22.8125 21.082 22.7578 20.918 22.8125C20.7539 23.2227 20.6719 23.6328 20.7266 24.0156C20.7266 24.2891 20.7539 24.4805 20.8359 24.6445C20.6172 24.918 20.4531 25.1914 20.3438 25.4102C20.2344 25.6289 20.207 25.9297 20.207 26.2578C20.207 27.0781 20.3438 27.7344 20.6445 28.1719C20.8906 28.5547 21.2734 28.8555 21.793 29.0195C22.1211 29.1289 22.6133 29.2383 23.2695 29.293C23.0234 29.5117 22.8867 29.8398 22.832 30.2227C22.5039 30.3867 22.2031 30.4414 21.9297 30.3867C21.4375 30.3594 21.082 30.1133 20.8359 29.6484C20.7266 29.457 20.5625 29.293 20.3984 29.1562C20.2617 29.1016 20.125 29.0195 19.9883 28.9648L19.7969 28.9375C19.5781 28.9375 19.4688 28.9922 19.4688 29.0469C19.4688 29.1016 19.4961 29.1836 19.6055 29.2383L19.7422 29.3477C19.8516 29.4297 19.9883 29.5391 20.125 29.7031C20.2344 29.8398 20.3164 29.9766 20.3984 30.1406L20.5078 30.3594C20.5898 30.6328 20.7539 30.8516 21.0273 30.9883C21.2461 31.125 21.4922 31.207 21.8203 31.2344C22.0391 31.2617 22.2578 31.2617 22.5039 31.207L22.8047 31.1797L22.832 32.8477C22.832 32.957 22.7773 33.0664 22.6953 33.1211C22.6133 33.2031 22.5039 33.2305 22.3672 33.1758C20.9727 32.7383 19.8516 31.918 19.0039 30.7148C18.1289 29.5117 17.7188 28.1719 17.7188 26.6406C17.7188 25.4102 17.9922 24.2891 18.5938 23.25C19.168 22.2383 19.9609 21.4453 21 20.8438C22.0117 20.2695 23.1602 19.9688 24.418 19.9688ZM20.3711 29.4023C20.3984 29.375 20.4531 29.375 20.5078 29.4297C20.5625 29.4844 20.5625 29.5391 20.5352 29.5664C20.4805 29.6211 20.4531 29.5938 20.3984 29.5391C20.3438 29.4844 20.3164 29.457 20.3711 29.4023ZM20.0703 29.1836C20.0977 29.1562 20.1523 29.1562 20.207 29.1836C20.2617 29.2109 20.2617 29.2383 20.2617 29.293C20.2344 29.3477 20.1797 29.3477 20.125 29.293C20.0703 29.2656 20.043 29.2383 20.0703 29.1836ZM20.9727 30.1406C20.9727 30.1406 21 30.1406 21.0547 30.1406C21.082 30.1406 21.1094 30.168 21.1367 30.1953C21.1641 30.2227 21.1914 30.25 21.1914 30.2773C21.1914 30.332 21.1914 30.3594 21.1914 30.3594C21.1367 30.4141 21.0547 30.4141 21 30.332C20.9453 30.3047 20.9453 30.2773 20.9453 30.2227C20.9453 30.1953 20.9453 30.168 20.9727 30.1406ZM20.6445 29.7578C20.6719 29.7578 20.6992 29.7578 20.7266 29.7578C20.7539 29.7578 20.7812 29.7852 20.8086 29.8125C20.8633 29.8945 20.8633 29.9492 20.8086 29.9766C20.7812 30.0039 20.7539 30.0039 20.7266 29.9766C20.6992 29.9766 20.6719 29.9492 20.6445 29.9219C20.5898 29.8398 20.5898 29.7852 20.6445 29.7578Z" fill="white"/>
</g>
<defs>
<clipPath id="clip0_1_274">
<rect width="48" height="48" fill="white"/>
</clipPath>
<clipPath id="clip1_1_274">
<rect width="48" height="48" fill="white"/>
</clipPath>
</defs>
</svg>
