<svg width="48" height="48" viewBox="0 0 48 48" fill="none" xmlns="http://www.w3.org/2000/svg">
<g clip-path="url(#clip0_1_259)">
<g clip-path="url(#clip1_1_259)">
<rect opacity="0.1" width="48" height="48" rx="24" fill="#6D5DD3"/>
</g>
<path d="M24.5 23.6055C22.75 23.6055 21.3555 25.0273 21.3555 26.75C21.3555 28.5 22.75 29.8945 24.5 29.8945C26.2227 29.8945 27.6445 28.5 27.6445 26.75C27.6445 25.0273 26.2227 23.6055 24.5 23.6055ZM24.5 28.8008C23.3789 28.8008 22.4492 27.8984 22.4492 26.75C22.4492 25.6289 23.3516 24.7266 24.5 24.7266C25.6211 24.7266 26.5234 25.6289 26.5234 26.75C26.5234 27.8984 25.6211 28.8008 24.5 28.8008ZM28.4922 23.4961C28.4922 23.0859 28.1641 22.7578 27.7539 22.7578C27.3438 22.7578 27.0156 23.0859 27.0156 23.4961C27.0156 23.9062 27.3438 24.2344 27.7539 24.2344C28.1641 24.2344 28.4922 23.9062 28.4922 23.4961ZM30.5703 24.2344C30.5156 23.25 30.2969 22.375 29.5859 21.6641C28.875 20.9531 28 20.7344 27.0156 20.6797C26.0039 20.625 22.9688 20.625 21.957 20.6797C20.9727 20.7344 20.125 20.9531 19.3867 21.6641C18.6758 22.375 18.457 23.25 18.4023 24.2344C18.3477 25.2461 18.3477 28.2812 18.4023 29.293C18.457 30.2773 18.6758 31.125 19.3867 31.8633C20.125 32.5742 20.9727 32.793 21.957 32.8477C22.9688 32.9023 26.0039 32.9023 27.0156 32.8477C28 32.793 28.875 32.5742 29.5859 31.8633C30.2969 31.125 30.5156 30.2773 30.5703 29.293C30.625 28.2812 30.625 25.2461 30.5703 24.2344ZM29.2578 30.3594C29.0664 30.9062 28.6289 31.3164 28.1094 31.5352C27.2891 31.8633 25.375 31.7812 24.5 31.7812C23.5977 31.7812 21.6836 31.8633 20.8906 31.5352C20.3438 31.3164 19.9336 30.9062 19.7148 30.3594C19.3867 29.5664 19.4688 27.6523 19.4688 26.75C19.4688 25.875 19.3867 23.9609 19.7148 23.1406C19.9336 22.6211 20.3438 22.2109 20.8906 21.9922C21.6836 21.6641 23.5977 21.7461 24.5 21.7461C25.375 21.7461 27.2891 21.6641 28.1094 21.9922C28.6289 22.1836 29.0391 22.6211 29.2578 23.1406C29.5859 23.9609 29.5039 25.875 29.5039 26.75C29.5039 27.6523 29.5859 29.5664 29.2578 30.3594Z" fill="white"/>
</g>
<defs>
<clipPath id="clip0_1_259">
<rect width="48" height="48" fill="white"/>
</clipPath>
<clipPath id="clip1_1_259">
<rect width="48" height="48" fill="white"/>
</clipPath>
</defs>
</svg>
