<svg width="48" height="48" viewBox="0 0 48 48" fill="none" xmlns="http://www.w3.org/2000/svg">
<g clip-path="url(#clip0_1_269)">
<g clip-path="url(#clip1_1_269)">
<rect opacity="0.1" width="48" height="48" rx="24" fill="#6D5DD3"/>
</g>
<path d="M30.0508 23.9062C30.5977 23.4961 31.0898 23.0039 31.5 22.4023C30.9531 22.6484 30.4062 22.8125 29.8594 22.8672C30.4609 22.4844 30.8984 21.9648 31.1172 21.2812C30.543 21.6094 29.9414 21.8555 29.2852 21.9648C29.0117 21.6914 28.6836 21.4727 28.3281 21.3086C27.9727 21.1445 27.5898 21.0625 27.1797 21.0625C26.6602 21.0625 26.1953 21.1992 25.7578 21.4453C25.3203 21.7188 24.9648 22.0742 24.7188 22.5117C24.4453 22.9492 24.3359 23.4414 24.3359 23.9336C24.3359 24.1523 24.3359 24.3711 24.3906 24.5898C23.2148 24.5352 22.1211 24.2617 21.082 23.7148C20.043 23.1953 19.1953 22.4844 18.4844 21.582C18.2109 22.0469 18.0742 22.5391 18.0742 23.0312C18.0742 23.5234 18.1836 23.9883 18.4297 24.3984C18.6484 24.8359 18.9766 25.1641 19.3594 25.4375C18.8945 25.4375 18.457 25.3008 18.0742 25.0547V25.1094C18.0742 25.793 18.293 26.3945 18.7305 26.9141C19.168 27.4609 19.7148 27.7891 20.3711 27.9258C20.0977 27.9805 19.8516 28.0078 19.6055 28.0078C19.4414 28.0078 19.25 28.0078 19.0859 27.9805C19.25 28.5547 19.5781 29.0195 20.0703 29.4023C20.5625 29.7852 21.1094 29.9492 21.7656 29.9492C20.6992 30.7695 19.4961 31.1797 18.1836 31.1797C17.9102 31.1797 17.6914 31.1797 17.5 31.1523C18.8125 32.0273 20.2891 32.4375 21.9023 32.4375C23.5703 32.4375 25.0469 32.0273 26.3594 31.1523C27.5352 30.3867 28.4648 29.375 29.1211 28.0625C29.75 26.8594 30.0781 25.5742 30.0781 24.2617C30.0781 24.0977 30.0508 23.9883 30.0508 23.9062Z" fill="white"/>
</g>
<defs>
<clipPath id="clip0_1_269">
<rect width="48" height="48" fill="white"/>
</clipPath>
<clipPath id="clip1_1_269">
<rect width="48" height="48" fill="white"/>
</clipPath>
</defs>
</svg>
